# File created by Blade
# Date/Time:  Wed Jan 21 15:55:59 2015
#---------------------------------------------------------
:version 1.10
:name HOM
:units
  mass 1.0
  length 1.000000
  angle deg
:documentation
     Acclaim Skeleton File
:root
   axis xyz
   order TX TY TZ RX RY RZ
   position 0.000000 0.000000 0.000000
   orientation 0 0 0
:bonedata
   begin
      id 1
      name Spine_dum
      direction 0.000000 1.000000 0.000000
      length 7.067664
      axis 0.0 0.0 0.0 xyz
   end
   begin
      id 2
      name LeftUpLeg_dum
      direction 1.000000 0.000000 0.000000
      length 4.013002
      axis 0.0 0.0 0.0 xyz
   end
   begin
      id 3
      name RightUpLeg_dum
      direction -1.000000 0.000000 0.000000
      length 4.013002
      axis 0.0 0.0 0.0 xyz
   end
   begin
      id 4
      name Spine
      direction 0.000000 1.000000 0.000000
      length 0.000000
      axis 0.0 0.0 0.0 xyz
      dof rx ry rz
   end
   begin
      id 5
      name Spine_dum1
      direction 0.000000 1.000000 0.000000
      length 15.039886
      axis 0.0 0.0 0.0 xyz
   end
   begin
      id 6
      name Spine_dum2
      direction 0.000000 1.000000 0.000000
      length 10.530368
      axis 0.0 0.0 0.0 xyz
   end
   begin
      id 7
      name Spine_dum3
      direction 0.000000 1.000000 0.000000
      length 10.530368
      axis 0.0 0.0 0.0 xyz
   end
   begin
      id 8
      name Head
      direction 0.000000 1.000000 0.000000
      length 4.527550
      axis 0.0 0.0 0.0 xyz
      dof rx ry rz
   end
   begin
      id 9
      name LeftShoulder
      direction 1.000000 0.000000 0.000000
      length 7.028855
      axis 0.0 0.0 -90.0 xyz
      dof rx ry rz
   end
   begin
      id 10
      name LeftArm
      direction 1.000000 0.000000 0.000000
      length 10.797705
      axis 0.0 0.0 -90.0 xyz
      dof rx ry rz
   end
   begin
      id 11
      name LeftForeArm
      direction 1.000000 0.000000 0.000000
      length 7.907442
      axis 0.0 0.0 -90.0 xyz
      dof ry rz rx
   end
   begin
      id 12
      name LeftHand
      direction 0.000000 0.000000 0.000000
      length 0.000000
      axis 0.0 0.0 -90.0 xyz
      dof rx ry rz
   end
   begin
      id 13
      name LeftHand_dum1
      direction 0.000000 0.000000 0.000000
      length 0.000000
      axis 0.0 0.0 -90.0 xyz
   end
   begin
      id 14
      name LeftHand_dum2
      direction 1.000000 0.000000 0.000000
      length 3.937000
      axis 0.0 0.0 -90.0 xyz
   end
   begin
      id 15
      name LeftHandThumb1
      direction 0.000000 0.000000 1.000000
      length 3.937000
      axis 0.0 0.0 -90.0 xyz
      dof rx rz ry
   end
   begin
      id 16
      name RightShoulder
      direction -1.000000 0.000000 0.000000
      length 7.028855
      axis 0.0 0.0 90.0 xyz
      dof rx ry rz
   end
   begin
      id 17
      name RightArm
      direction -1.000000 0.000000 0.000000
      length 10.797705
      axis 0.0 0.0 90.0 xyz
      dof rx ry rz
   end
   begin
      id 18
      name RightForeArm
      direction -1.000000 0.000000 0.000000
      length 7.907442
      axis 0.0 0.0 90.0 xyz
      dof ry rz rx
   end
   begin
      id 19
      name RightHand
      direction 0.000000 0.000000 0.000000
      length 0.000000
      axis 0.0 0.0 90.0 xyz
      dof rx ry rz
   end
   begin
      id 20
      name RightHand_dum1
      direction 0.000000 0.000000 0.000000
      length 0.000000
      axis 0.0 0.0 90.0 xyz
   end
   begin
      id 21
      name RightHand_dum2
      direction -1.000000 0.000000 0.000000
      length 3.937000
      axis 0.0 0.0 90.0 xyz
   end
   begin
      id 22
      name RightHandThumb1
      direction 0.000000 0.000000 1.000000
      length 3.937000
      axis 0.0 0.0 90.0 xyz
      dof rx rz ry
   end
   begin
      id 23
      name LeftUpLeg
      direction 0.000000 -1.000000 0.000000
      length 16.899758
      axis 0.0 0.0 0.0 xyz
      dof rx ry rz
   end
   begin
      id 24
      name LeftLeg
      direction 0.000000 -1.000000 0.000000
      length 17.389183
      axis 0.0 0.0 0.0 xyz
      dof rx ry rz
   end
   begin
      id 25
      name LeftFoot
      direction 0.000000 -0.258819 0.965926
      length 4.924528
      axis 15.0 0.0 0.0 xyz
      dof rx ry rz
   end
   begin
      id 26
      name LeftToeBase
      direction 0.000000 0.000000 1.000000
      length 2.952750
      axis 0.0 0.0 0.0 xyz
      dof rx ry rz
   end
   begin
      id 27
      name RightUpLeg
      direction 0.000000 -1.000000 0.000000
      length 16.899758
      axis 0.0 0.0 0.0 xyz
      dof rx ry rz
   end
   begin
      id 28
      name RightLeg
      direction 0.000000 -1.000000 0.000000
      length 17.389183
      axis 0.0 0.0 0.0 xyz
      dof rx ry rz
   end
   begin
      id 29
      name RightFoot
      direction 0.000000 -0.258819 0.965926
      length 4.924528
      axis 15.0 0.0 0.0 xyz
      dof rx ry rz
   end
   begin
      id 30
      name RightToeBase
      direction 0.000000 0.000000 1.000000
      length 2.952750
      axis 0.0 0.0 0.0 xyz
      dof rx ry rz
   end
:hierarchy
   begin
      root Spine_dum LeftUpLeg_dum RightUpLeg_dum
      Spine_dum Spine
      LeftUpLeg_dum LeftUpLeg
      RightUpLeg_dum RightUpLeg
      Spine Spine_dum1 Spine_dum2 Spine_dum3
      Spine_dum1 Head
      Spine_dum2 LeftShoulder
      Spine_dum3 RightShoulder
      LeftShoulder LeftArm
      LeftArm LeftForeArm
      LeftForeArm LeftHand
      LeftHand LeftHand_dum1 LeftHand_dum2
      LeftHand_dum1 LeftHandThumb1
      RightShoulder RightArm
      RightArm RightForeArm
      RightForeArm RightHand
      RightHand RightHand_dum1 RightHand_dum2
      RightHand_dum1 RightHandThumb1
      LeftUpLeg LeftLeg
      LeftLeg LeftFoot
      LeftFoot LeftToeBase
      RightUpLeg RightLeg
      RightLeg RightFoot
      RightFoot RightToeBase
   end

# File created by Blade
# Date/Time:  Wed Jan 21 15:55:51 2015
# Frame Rate: 120.000 fps
#------------------------------------------------------
:FULLY-SPECIFIED
:DEGREES
92
root 17.923111 35.527654 -21.475823 -175.783276 0.808484 -178.383473
Spine -10.795850 2.444857 -0.869531
Head 13.596559 -4.655065 1.706748
LeftShoulder -11.465824 -27.733697 14.940220
LeftArm 1.608744 3.923794 -10.588921
LeftForeArm 3.889390 -0.000000 -2.355774
LeftHand -5.491013 -0.000000 4.323956
LeftHandThumb1 -26.253704 0.000000 33.147579
RightShoulder -13.074310 -11.153107 -4.831138
RightArm 9.247467 30.253827 17.653054
RightForeArm -28.065448 0.000000 5.329810
RightHand -5.995735 -0.000000 0.142922
RightHandThumb1 -24.326973 -0.000000 -32.862282
LeftUpLeg 4.500667 11.437737 2.641659
LeftLeg -5.762304 -0.000000 0.000000
LeftFoot -21.628802 26.501577 -13.899970
LeftToeBase 25.904470 -0.000000 -0.000000
RightUpLeg 2.590022 -10.726318 -0.530939
RightLeg -2.488200 -0.000000 0.000000
RightFoot -20.544879 -22.964081 17.164523
RightToeBase 23.435133 -0.000000 -0.000000
93
root 17.917874 35.532081 -21.452148 -175.943737 0.890366 -178.396359
Spine -10.497495 2.552866 -0.949719
Head 14.174257 -4.920117 1.624536
LeftShoulder -11.341932 -27.342577 14.346434
LeftArm 1.952887 5.188161 -10.970394
LeftForeArm 3.978120 0.000000 -2.204497
LeftHand -5.630216 -0.000000 4.331863
LeftHandThumb1 -26.253704 0.000000 33.147579
RightShoulder -12.902432 -11.422005 -4.574926
RightArm 9.555856 29.970758 18.596282
RightForeArm -27.753973 -0.000000 5.359929
RightHand -5.910789 -0.000000 -0.406982
RightHandThumb1 -24.326973 -0.000000 -32.862282
LeftUpLeg 4.588940 11.437682 2.634433
LeftLeg -5.665271 -0.000000 0.000000
LeftFoot -21.655075 26.562883 -13.932586
LeftToeBase 25.816173 -0.000000 -0.000000
RightUpLeg 2.633236 -10.654384 -0.577650
RightLeg -2.356573 -0.000000 0.000000
RightFoot -20.593413 -22.945082 17.240185
RightToeBase 23.533239 -0.000000 -0.000000
94
root 17.914651 35.536000 -21.431022 -176.088795 0.902188 -178.395851
Spine -10.207054 2.620846 -1.027102
Head 14.751449 -5.146270 1.593302
LeftShoulder -11.226029 -26.971118 13.821752
LeftArm 2.274536 6.451158 -11.494906
LeftForeArm 4.000595 -0.000000 -2.009096
LeftHand -5.761022 -0.000000 4.220210
LeftHandThumb1 -26.253704 0.000000 33.147579
RightShoulder -12.779300 -11.699178 -4.299223
RightArm 9.887434 29.912066 19.661713
RightForeArm -27.778482 -0.000000 5.507815
RightHand -5.863749 -0.000000 -0.757323
RightHandThumb1 -24.326973 -0.000000 -32.862282
LeftUpLeg 4.639738 11.401143 2.646430
LeftLeg -5.541138 -0.000000 0.000000
LeftFoot -21.718633 26.601264 -13.938626
LeftToeBase 25.842866 -0.000000 -0.000000
RightUpLeg 2.689835 -10.742615 -0.604240
RightLeg -2.258531 -0.000000 0.000000
RightFoot -20.575712 -22.852865 17.243168
RightToeBase 23.500298 -0.000000 -0.000000
95
root 17.909116 35.540422 -21.397088 -176.219713 1.002075 -178.397856
Spine -9.884553 2.800405 -1.106314
Head 15.300213 -5.480341 1.489537
LeftShoulder -11.043646 -26.671590 13.250579
LeftArm 2.492422 7.705159 -12.034390
LeftForeArm 3.997519 0.000000 -1.781827
LeftHand -5.658276 -0.000000 3.924598
LeftHandThumb1 -26.253704 0.000000 33.147579
RightShoulder -12.635270 -11.893994 -4.049573
RightArm 10.213456 29.784627 20.829589
RightForeArm -27.595152 -0.000000 5.666535
RightHand -5.913866 -0.000000 -1.192939
RightHandThumb1 -24.326973 -0.000000 -32.862282
LeftUpLeg 4.654956 11.421143 2.641075
LeftLeg -5.387145 -0.000000 0.000000
LeftFoot -21.765941 26.663434 -13.942091
LeftToeBase 25.812937 -0.000000 -0.000000
RightUpLeg 2.658432 -10.666829 -0.632335
RightLeg -2.076064 -0.000000 0.000000
RightFoot -20.587974 -22.832343 17.227039
RightToeBase 23.500590 -0.000000 -0.000000
